# xmcd
#
# Track frame offsets:
#	150
#	18945
#	33527
#	51117
#	64735
#	82895
#	97242
#	111110
#	129465
#	147700
#	161287
#	178650
#	199720
#	214780
#	231297
#	233942
#	238860
#
# Disc length: 3328
#
# Revision: 1
# Processed by: cddbd v1.5.1PL0 Copyright (c) Steve Scherf et al.
# Submitted via: VisiTrax 2.9.5.180 - For more info visit www.synapsa.com
# Normalized: r0:DSETVAR1
#
DISCID=f00cfe11
DTITLE=Various Artist - CDX 244 July 2000
DYEAR=2000
DGENRE=
TTITLE0=Lisa Angelle - A woman gets lonel
TTITLE1=Loretta Lynn - Country in my genes
TTITLE2=George Strait - Go on
TTITLE3=Randy Travis - I'll be right here loving you
TTITLE4=John Rich - I pray for you
TTITLE5=Steve Wariner/Garth Brooks - Katie wants a fast one
TTITLE6=Chris Cagle - My love goes on and on
TTITLE7=Chris LeDoux - Silence on the line
TTITLE8=Jamie O'Neal - There is no Arizona
TTITLE9=Confederate Railroad - Toss a little bone
TTITLE10=Shenandoah - What children believe
TTITLE11=Anita Cochran - You with me
TTITLE12=Victor Sanz - Destination unknown
TTITLE13=Andy Griggs - Waitin' on sundown
TTITLE14=Andy Griggs - PSA
TTITLE15=Andy Griggs - PSA
TTITLE16=Marc Corey Lee - Silently falling
EXTD=
EXTT0=
EXTT1=
EXTT2=
EXTT3=
EXTT4=
EXTT5=
EXTT6=
EXTT7=
EXTT8=
EXTT9=
EXTT10=
EXTT11=
EXTT12=
EXTT13=
EXTT14=
EXTT15=
EXTT16=
PLAYORDER=
